<?xml version="1.0" standalone="no"?>
<!DOCTYPE svg PUBLIC "-//W3C//DTD SVG 20010904//EN"
 "http://www.w3.org/TR/2001/REC-SVG-20010904/DTD/svg10.dtd">
<svg version="1.0" xmlns="http://www.w3.org/2000/svg"
 width="305.000000pt" height="142.000000pt" viewBox="0 0 305.000000 142.000000"
 preserveAspectRatio="xMidYMid meet">

<g transform="translate(0.000000,142.000000) scale(0.100000,-0.100000)"
fill="#000000" stroke="none">
<path d="M1866 1141 c-95 -63 -98 -193 -7 -313 49 -65 114 -128 131 -128 18 0
10 -17 -12 -28 -20 -10 -19 -11 13 -6 28 4 50 -1 100 -26 243 -123 459 -143
700 -64 42 14 84 31 94 38 10 7 -26 -2 -81 -20 -235 -79 -435 -66 -661 41 -51
24 -93 45 -93 48 0 2 33 25 74 51 179 113 263 273 189 356 -50 55 -148 51
-212 -9 l-30 -29 -20 34 c-40 68 -126 94 -185 55z m119 -15 c47 -20 69 -57 62
-106 -3 -22 -2 -40 2 -40 4 0 21 20 38 44 41 58 73 78 132 84 40 3 52 0 77
-21 25 -22 29 -32 28 -75 0 -38 -8 -61 -33 -101 -42 -65 -133 -148 -204 -186
-54 -28 -58 -29 -82 -14 -55 33 -138 125 -163 179 -69 154 13 290 143 236z"/>
<path d="M425 761 c-22 -3 39 -6 135 -7 118 0 154 2 110 7 -79 8 -191 8 -245
0z"/>
<path d="M270 738 c-61 -17 -56 -28 6 -12 77 20 84 22 54 22 -14 0 -41 -4 -60
-10z"/>
<path d="M745 745 c23 -8 85 -10 85 -3 0 4 -21 8 -47 7 -27 0 -43 -2 -38 -4z"/>
<path d="M905 725 c39 -7 81 -14 95 -14 24 1 24 1 -3 9 -15 5 -58 11 -95 14
l-67 5 70 -14z"/>
<path d="M169 700 c-53 -28 -99 -77 -125 -135 -29 -62 -31 -95 -6 -95 16 0 19
8 18 43 -1 74 38 128 140 194 29 18 13 14 -27 -7z"/>
<path d="M1135 685 c378 -83 615 -97 783 -43 58 18 27 19 -39 1 -49 -13 -102
-17 -229 -17 -149 1 -184 4 -355 38 -219 44 -322 57 -160 21z"/>
<path d="M2957 669 c-26 -18 -46 -34 -43 -36 5 -5 96 55 96 62 0 8 -2 6 -53
-26z"/>
<path d="M670 365 c0 -37 4 -65 10 -65 6 0 10 13 10 29 0 25 5 30 28 34 l27 4
-27 2 c-21 1 -28 6 -28 21 0 16 7 20 30 20 17 0 30 5 30 10 0 6 -18 10 -40 10
l-40 0 0 -65z"/>
<path d="M820 365 c0 -37 4 -65 10 -65 6 0 10 28 10 65 0 37 -4 65 -10 65 -6
0 -10 -28 -10 -65z"/>
<path d="M920 365 c0 -37 4 -65 10 -65 6 0 10 11 10 25 0 14 6 25 13 25 8 0
20 -11 27 -25 7 -14 17 -25 22 -25 11 0 10 18 -2 25 -6 4 -8 21 -4 41 8 42 -8
64 -47 64 -29 0 -29 0 -29 -65z m66 33 c8 -12 -24 -40 -37 -32 -5 3 -9 14 -9
25 0 21 34 27 46 7z"/>
<path d="M1097 423 c-17 -16 -5 -49 24 -66 26 -14 29 -20 19 -32 -8 -10 -21
-13 -39 -9 -20 5 -23 4 -15 -5 6 -7 24 -11 40 -9 23 2 30 9 32 30 3 21 -3 30
-28 43 -34 18 -32 35 6 35 14 0 22 4 19 10 -7 11 -48 14 -58 3z"/>
<path d="M1230 420 c0 -5 7 -10 15 -10 12 0 15 -13 15 -55 0 -30 5 -55 10 -55
6 0 10 25 10 55 0 41 4 55 14 55 8 0 18 5 21 10 4 6 -12 10 -39 10 -25 0 -46
-4 -46 -10z"/>
<path d="M1490 365 l0 -65 46 0 c27 0 43 4 39 10 -3 6 -19 10 -36 10 -29 0
-29 1 -29 55 0 30 -4 55 -10 55 -6 0 -10 -28 -10 -65z"/>
<path d="M1661 404 c-12 -15 -21 -32 -21 -39 0 -7 9 -24 21 -39 38 -48 112
-23 112 39 0 62 -74 87 -112 39z m90 -15 c18 -34 -3 -69 -41 -69 -38 0 -59 35
-41 69 16 29 66 29 82 0z"/>
<path d="M1849 408 c5 -12 18 -43 29 -68 l19 -45 20 47 c30 66 36 88 24 88 -5
0 -15 -17 -22 -37 -18 -58 -21 -59 -39 -13 -10 24 -22 46 -29 48 -8 3 -8 -3
-2 -20z"/>
<path d="M2030 365 l0 -65 40 0 c22 0 40 5 40 10 0 6 -16 10 -36 10 -28 0 -35
3 -32 18 2 10 15 19 33 21 l30 4 -30 6 c-17 4 -31 13 -33 24 -3 14 4 17 32 17
20 0 36 5 36 10 0 6 -18 10 -40 10 l-40 0 0 -65z"/>
<path d="M621 153 c5 -16 12 -34 15 -42 2 -8 7 -11 10 -8 8 7 -18 77 -28 77
-4 0 -3 -12 3 -27z"/>
<path d="M652 155 c-1 -14 2 -24 7 -20 5 3 13 -5 17 -17 6 -21 8 -20 21 16 7
22 11 41 9 43 -2 3 -7 -6 -11 -18 l-7 -22 -17 22 -17 22 -2 -26z"/>
<path d="M760 140 c0 -37 2 -40 28 -39 23 2 24 2 5 6 -13 2 -23 8 -23 13 0 4
10 11 23 15 l22 8 -22 4 c-13 2 -23 8 -23 13 0 5 10 11 23 13 19 4 18 4 -5 6
-26 1 -28 -2 -28 -39z"/>
<path d="M860 140 c0 -39 2 -41 26 -38 57 7 57 69 0 76 -24 3 -26 1 -26 -38z
m49 17 c8 -10 7 -18 -3 -32 -16 -23 -36 -12 -36 21 0 26 21 32 39 11z"/>
<path d="M980 140 c0 -41 9 -47 44 -34 21 8 21 60 0 68 -35 13 -44 7 -44 -34z
m48 6 c4 -17 -12 -35 -30 -36 -5 0 -8 14 -8 31 0 24 4 30 17 27 10 -2 19 -12
21 -22z"/>
<path d="M1093 140 c0 -25 2 -35 4 -22 2 12 2 32 0 45 -2 12 -4 2 -4 -23z"/>
<path d="M1150 142 c0 -23 5 -42 10 -42 6 0 10 12 10 27 l0 27 30 -29 30 -29
0 42 c0 23 -4 42 -10 42 -5 0 -10 -12 -10 -27 l0 -27 -30 29 -30 29 0 -42z"/>
<path d="M1282 168 c-27 -27 -6 -68 35 -68 16 0 23 6 23 20 0 12 -7 20 -17 20
-15 0 -16 -2 -3 -10 18 -11 6 -25 -15 -16 -25 9 -15 49 15 57 l25 7 -25 1
c-15 1 -31 -4 -38 -11z"/>
<path d="M1461 138 c1 -24 3 -36 6 -27 2 10 13 19 24 22 28 7 21 41 -9 45 -20
3 -22 -1 -21 -40z m31 17 c0 -5 -5 -11 -11 -13 -6 -2 -11 4 -11 13 0 9 5 15
11 13 6 -2 11 -8 11 -13z"/>
<path d="M1551 143 c-1 -41 1 -43 27 -42 23 0 24 1 7 8 -12 5 -22 21 -26 42
-6 34 -6 33 -8 -8z"/>
<path d="M1658 140 c-9 -22 -13 -40 -8 -40 5 0 10 6 13 13 3 9 9 9 26 -1 11
-7 21 -10 21 -7 0 8 -29 75 -32 75 -2 0 -11 -18 -20 -40z m27 0 c3 -5 1 -10
-4 -10 -6 0 -11 5 -11 10 0 6 2 10 4 10 3 0 8 -4 11 -10z"/>
<path d="M1761 139 c2 -31 3 -36 6 -15 l5 28 29 -28 29 -28 -1 45 c-2 31 -3
36 -6 15 l-5 -28 -29 28 -29 28 1 -45z"/>
<path d="M1881 139 c2 -31 3 -36 6 -15 l5 28 29 -28 29 -28 -1 45 c-2 31 -3
36 -6 15 l-5 -28 -29 28 -29 28 1 -45z"/>
<path d="M2010 140 c0 -37 2 -40 28 -39 23 2 24 2 5 6 -26 5 -31 23 -8 23 8 0
15 5 15 10 0 6 -7 10 -15 10 -23 0 -18 18 8 23 19 4 18 4 -5 6 -26 1 -28 -2
-28 -39z"/>
<path d="M2111 138 c1 -24 3 -35 6 -25 6 21 19 22 27 2 3 -8 10 -15 16 -15 7
0 8 5 3 13 -4 6 -8 23 -8 37 0 18 -6 26 -22 28 -21 3 -23 0 -22 -40z m31 17
c0 -5 -5 -11 -11 -13 -6 -2 -11 4 -11 13 0 9 5 15 11 13 6 -2 11 -8 11 -13z"/>
</g>
</svg>
